<mxfile host="app.diagrams.net" agent="Mozilla/5.0 (Macintosh; Intel Mac OS X 10_15_7) AppleWebKit/537.36 (KHTML, like Gecko) Chrome/134.0.0.0 Safari/537.36" version="26.2.5">
  <diagram name="第 1 页" id="vYwCA7s9BO-Ozh3qObAB">
    <mxGraphModel dx="861" dy="766" grid="0" gridSize="10" guides="1" tooltips="1" connect="1" arrows="1" fold="1" page="1" pageScale="1" pageWidth="827" pageHeight="1169" math="0" shadow="0">
      <root>
        <mxCell id="0" />
        <mxCell id="1" parent="0" />
        <mxCell id="FHUY2O9uMSRHD8JQYp7l-35" value="&lt;font style=&quot;font-size: 14px;&quot; face=&quot;Times New Roman&quot;&gt;Actions&lt;/font&gt;" style="edgeStyle=orthogonalEdgeStyle;rounded=0;orthogonalLoop=1;jettySize=auto;html=1;entryX=0.5;entryY=1;entryDx=0;entryDy=0;" edge="1" parent="1" source="FHUY2O9uMSRHD8JQYp7l-2" target="FHUY2O9uMSRHD8JQYp7l-9">
          <mxGeometry x="0.0142" y="-20" relative="1" as="geometry">
            <Array as="points">
              <mxPoint x="197" y="612" />
              <mxPoint x="439" y="612" />
            </Array>
            <mxPoint as="offset" />
          </mxGeometry>
        </mxCell>
        <mxCell id="FHUY2O9uMSRHD8JQYp7l-2" value="&lt;font&gt;View&lt;/font&gt;" style="rounded=0;whiteSpace=wrap;html=1;fontFamily=Times New Roman;fillColor=#dae8fc;strokeColor=#6c8ebf;fontSize=14;" vertex="1" parent="1">
          <mxGeometry x="139" y="532" width="120" height="60" as="geometry" />
        </mxCell>
        <mxCell id="FHUY2O9uMSRHD8JQYp7l-23" value="" style="edgeStyle=orthogonalEdgeStyle;rounded=0;orthogonalLoop=1;jettySize=auto;html=1;" edge="1" parent="1" source="FHUY2O9uMSRHD8JQYp7l-3" target="FHUY2O9uMSRHD8JQYp7l-2">
          <mxGeometry relative="1" as="geometry" />
        </mxCell>
        <mxCell id="FHUY2O9uMSRHD8JQYp7l-3" value="User" style="shape=umlActor;verticalLabelPosition=bottom;verticalAlign=top;html=1;outlineConnect=0;fontFamily=Times New Roman;fontSize=14;" vertex="1" parent="1">
          <mxGeometry x="22" y="532" width="28" height="60" as="geometry" />
        </mxCell>
        <mxCell id="FHUY2O9uMSRHD8JQYp7l-34" style="edgeStyle=orthogonalEdgeStyle;rounded=0;orthogonalLoop=1;jettySize=auto;html=1;entryX=0.5;entryY=0;entryDx=0;entryDy=0;" edge="1" parent="1" source="FHUY2O9uMSRHD8JQYp7l-9" target="FHUY2O9uMSRHD8JQYp7l-2">
          <mxGeometry relative="1" as="geometry">
            <Array as="points">
              <mxPoint x="441" y="512" />
              <mxPoint x="199" y="512" />
            </Array>
          </mxGeometry>
        </mxCell>
        <mxCell id="FHUY2O9uMSRHD8JQYp7l-38" value="Single ViewState" style="edgeLabel;html=1;align=center;verticalAlign=middle;resizable=0;points=[];fontFamily=Times New Roman;fontSize=14;" vertex="1" connectable="0" parent="FHUY2O9uMSRHD8JQYp7l-34">
          <mxGeometry x="0.0638" y="-3" relative="1" as="geometry">
            <mxPoint y="-10" as="offset" />
          </mxGeometry>
        </mxCell>
        <mxCell id="FHUY2O9uMSRHD8JQYp7l-36" style="edgeStyle=orthogonalEdgeStyle;rounded=0;orthogonalLoop=1;jettySize=auto;html=1;exitX=1;exitY=0.25;exitDx=0;exitDy=0;" edge="1" parent="1" source="FHUY2O9uMSRHD8JQYp7l-9">
          <mxGeometry relative="1" as="geometry">
            <mxPoint x="656" y="547" as="targetPoint" />
          </mxGeometry>
        </mxCell>
        <mxCell id="FHUY2O9uMSRHD8JQYp7l-9" value="&lt;font&gt;ViewModel&lt;/font&gt;" style="rounded=0;whiteSpace=wrap;html=1;fontFamily=Times New Roman;fillColor=#d5e8d4;strokeColor=#82b366;fontSize=14;" vertex="1" parent="1">
          <mxGeometry x="379" y="532" width="120" height="60" as="geometry" />
        </mxCell>
        <mxCell id="FHUY2O9uMSRHD8JQYp7l-37" style="edgeStyle=orthogonalEdgeStyle;rounded=0;orthogonalLoop=1;jettySize=auto;html=1;exitX=0;exitY=0.75;exitDx=0;exitDy=0;entryX=1;entryY=0.75;entryDx=0;entryDy=0;" edge="1" parent="1" source="FHUY2O9uMSRHD8JQYp7l-10" target="FHUY2O9uMSRHD8JQYp7l-9">
          <mxGeometry relative="1" as="geometry" />
        </mxCell>
        <mxCell id="FHUY2O9uMSRHD8JQYp7l-10" value="&lt;font&gt;Model&lt;/font&gt;" style="rounded=0;whiteSpace=wrap;html=1;fontFamily=Times New Roman;fillColor=#e1d5e7;strokeColor=#9673a6;fontSize=14;" vertex="1" parent="1">
          <mxGeometry x="659" y="532" width="120" height="60" as="geometry" />
        </mxCell>
      </root>
    </mxGraphModel>
  </diagram>
</mxfile>
